<?xml version="1.0" encoding="utf-8"?>
<!-- Generator: Adobe Illustrator 23.0.1, SVG Export Plug-In . SVG Version: 6.00 Build 0)  -->
<svg version="1.1" id="Layer_1" xmlns="http://www.w3.org/2000/svg" xmlns:xlink="http://www.w3.org/1999/xlink" x="0px" y="0px"
	 viewBox="0 0 72 72" style="enable-background:new 0 0 72 72;" xml:space="preserve">
<style type="text/css">
	.st0{fill:#2F2F31;}
</style>
<g>
	<path class="st0" d="M56.4,39.5V24.2c0-1.5,0.2-3.1,0.5-4.6c0.6-3.5,3.6-6.2,7.2-6.6c0.7-0.1,1.4-0.1,2.1-0.1
		c1.6,0.3,2.7,1.7,2.6,3.4c-0.1,1.6-1.4,3-3,3.1c-0.4,0-0.8,0.1-1.1,0.2c-0.9,0.2-1.2,0.4-1.4,1.3C63,21.7,63,22.7,63,23.5v31.9
		c0.1,2.9-0.5,5.7-1.7,8.3c-1.6,3.2-4.2,5.7-7.5,7.1c-1.1,0.4-2.3,0.6-3.5,0.6c-5.5,0.2-10.9,0.4-16.4,0.4c-4,0-8-0.2-12-0.3
		c-5.5-0.2-9-3.2-11.4-7.8c-1.3-2.7-1.9-5.6-1.8-8.5c0-10,0.1-20.1,0.1-30c0-1.1-0.1-2.3-0.2-3.4c-0.2-1.6-0.7-2-2.3-2.1
		c-1.5-0.1-2.7-1.1-3-2.6c-0.4-1.7,0.6-3.5,2.4-3.9C6.1,13,6.4,13,6.6,13c4.4,0.2,7.7,2.4,8.5,7.2c0.3,1.5,0.4,3.1,0.4,4.7
		c0,10.1-0.1,20.2-0.1,30.3c-0.1,1.7,0.2,3.5,0.8,5.1c0.8,2.1,2.5,3.8,4.6,4.7c0.9,0.3,1.9,0.5,2.8,0.4c7.5,0.4,15.1,0.4,22.6,0.2
		c1.2-0.1,2.5-0.2,3.7-0.2c1.9-0.2,3.3-1.4,4.5-2.7c1.2-1.5,1.9-3.3,2-5.3c0.1-3.4,0.1-6.7,0.1-10.1C56.4,44.5,56.4,42,56.4,39.5
		L56.4,39.5z"/>
	<path class="st0" d="M51.9,27.5v28.2c0,0.8-0.1,1.6-0.3,2.4c-0.3,1.5-1.6,2.6-3.2,2.6c-7.9,0.5-15.8,0.4-23.7,0.1
		c-0.5,0-0.9-0.1-1.4-0.1c-1.2,0.1-2.3-0.7-2.7-1.8C20.2,58,20,57.1,20,56.1c-0.1-3.7,0-7.3,0-11v-17c-0.1-0.5,0.3-1,0.8-1.1
		c1.9-0.5,3.9-0.7,5.8-0.5c1.9,0.1,3.8,0.2,5.7,0.2c1.7-0.1,3.3-0.8,4.6-1.9c0.3-0.3,0.7-0.6,1.1-0.9c1.2-1.2,3.1-1.2,4.3,0l0,0
		c1.5,1.3,3.4,2.2,5.3,2.7C48.9,27,50.4,27.3,51.9,27.5z M34.6,34.8L34.6,34.8c0-0.5,0-0.9,0-1.4c-0.1-0.5-0.3-0.9-0.7-1.2
		c-0.9-0.7-2.1-0.6-2.9,0.2c-0.7,0.8-0.7,2.1,0.1,2.9c0.4,0.3,0.8,0.7,1.1,1.1c0.2,0.3,0.5,0.7,0.6,1.1c0.2,0.5,0,1.1-0.5,1.4
		c-0.4,0.4-1.1,0.4-1.5,0.1c-0.4-0.3-0.7-0.6-1-0.9c-0.3-0.4-0.7-0.7-1.1-1.1c-0.7-0.5-1.6-0.6-2.4-0.2c-0.7,0.4-1.1,1.2-0.9,2.1
		c0.1,1.1,1.1,1.9,2.1,1.8c0.7,0,1.5,0,2.2,0.2c0.7,0.1,1.2,0.7,1.2,1.4c0,0.3-0.1,0.6-0.3,0.8c-0.3,0.3-0.7,0.5-1.1,0.5
		c-0.7,0-1.4,0-2.1,0c-0.9-0.1-1.8,0.4-2.1,1.3c-0.3,0.9,0,2,0.8,2.5c0.8,0.6,1.9,0.5,2.6-0.2c0.5-0.5,1-1.1,1.5-1.5
		c0.6-0.5,1.5-0.5,2,0.1c0.5,0.5,0.5,1.3,0.1,1.8c-0.2,0.2-0.4,0.4-0.6,0.6c-0.4,0.4-0.8,0.7-1.2,1.1c-0.7,0.8-0.7,1.9,0,2.7
		c0.6,0.8,1.8,1.1,2.7,0.5c1-0.6,1.4-1.7,1.1-2.8c-0.1-0.4-0.1-0.9,0.1-1.3c0.2-0.6,0.8-1.1,1.5-1.1c0.7,0.1,1.3,0.8,1.3,1.5
		c0,0.4-0.1,0.7-0.1,1.1c0,0.6,0,1.1,0.1,1.7c0.2,0.8,0.8,1.3,1.6,1.4c0.8,0.2,1.7-0.2,2.1-0.9c0.5-0.6,0.5-1.5,0.1-2.2
		c-0.5-0.6-1-1.1-1.5-1.6c-0.7-0.5-0.8-1.4-0.3-2.1c0.5-0.7,1.4-0.8,2.1-0.3c0.1,0.1,0.2,0.2,0.3,0.3c0.4,0.5,0.8,0.9,1.1,1.3
		c0.5,0.7,1.4,0.9,2.1,0.5c0.9-0.3,1.5-1.1,1.5-2s-0.5-1.6-1.3-1.9c-0.6-0.1-1.2-0.2-1.8-0.2c-0.5-0.1-1-0.1-1.4-0.2
		c-0.6-0.1-1-0.7-0.9-1.3v-0.1c0-0.7,0.6-1.2,1.2-1.1h2.3c0.9,0,1.7-0.6,2.1-1.4c0.3-0.9,0-1.8-0.7-2.4c-0.8-0.7-2.1-0.6-2.8,0.2
		c-0.5,0.5-0.8,0.9-1.3,1.4s-1.4,0.5-2,0.1c-0.6-0.5-0.7-1.3-0.2-1.9c0,0,0,0,0.1-0.1c0.2-0.3,0.5-0.5,0.8-0.8
		c0.4-0.4,0.8-0.7,1.1-1.1c0.5-0.5,0.6-1.3,0.3-2c-0.4-1-1.4-1.5-2.4-1.4c-0.9,0.2-1.4,0.9-1.6,2.1c0,0.9-0.2,1.7-0.4,2.6
		c-0.2,0.7-0.6,0.9-1.3,0.7c-0.8-0.1-1.3-0.8-1.2-1.6C34.6,35.5,34.6,35.1,34.6,34.8z"/>
	<path class="st0" d="M39,13.7c0.1-3.2,2.7-5.8,5.9-5.9c3.2,0.1,5.8,2.7,5.9,5.9c0,3.3-2.7,5.9-5.9,5.9S39,16.9,39,13.7z"/>
	<path class="st0" d="M24,15c2.6,0,4.6,2.1,4.6,4.7s-2.1,4.7-4.7,4.7s-4.7-2.2-4.7-4.8C19.3,17,21.4,15,24,15z"/>
	<path class="st0" d="M32.8,4.4c0,2.3-1.9,4.1-4.1,4c-2.3,0-4.1-1.9-4.1-4.1c0-2.3,1.9-4.1,4.2-4C31,0.3,32.8,2.1,32.8,4.4L32.8,4.4
		z"/>
	<path class="st0" d="M34.8,40v-0.5c0.1-0.5,0.5-0.9,1-1.1c0.5,0,0.9,0.4,1,0.9c0.1,0.4,0.1,0.8,0.2,1.2c0,0.4-0.1,0.8-0.4,1.1
		c-0.2,0.3-0.6,0.5-1,0.3c-0.1-0.1-0.2-0.2-0.3-0.3C35.1,41.1,34.8,40.5,34.8,40C34.7,40,34.7,40,34.8,40z"/>
	<path class="st0" d="M34.2,42.3c0.3,0.2,0.8,0.4,0.8,0.7c0.1,0.4-0.1,0.8-0.3,1.1c-0.2,0.4-0.5,0.6-0.9,0.8s-0.9,0.3-1.3,0.2
		c-0.2,0-0.5-0.5-0.5-0.7C32,43.7,33.3,42.5,34.2,42.3z"/>
	<path class="st0" d="M39.5,44.2c0,0.8-0.5,1.2-1.2,0.9c-0.5-0.2-1.1-0.5-1.5-0.9c-0.2-0.2-0.4-0.6-0.4-0.9
		c-0.1-0.4,0.2-0.7,0.6-0.8c1,0,2,0.5,2.5,1.3L39.5,44.2z"/>
</g>
</svg>
