<?xml version="1.0" encoding="utf-8"?>
<!-- Generator: Adobe Illustrator 23.0.1, SVG Export Plug-In . SVG Version: 6.00 Build 0)  -->
<svg version="1.1" id="Layer_1" xmlns="http://www.w3.org/2000/svg" xmlns:xlink="http://www.w3.org/1999/xlink" x="0px" y="0px"
	 viewBox="0 0 72 72" style="enable-background:new 0 0 72 72;" xml:space="preserve">
<style type="text/css">
	.st0{fill:#2F2F31;}
</style>
<g>
	<g>
		<path class="st0" d="M39.9,57.6c0-3.5,1.6-6.7,4-8.8c-2.7,0.3-5.6,0.5-8.6,0.5c-10.6,0-19.7-2-24-5.3v10.7c0,4.6,10.8,8.3,24,8.3
			c2,0,3.9-0.1,5.8-0.3C40.3,61.2,39.9,59.5,39.9,57.6z M17.1,55.6c-0.9,0-1.7-0.7-1.7-1.7s0.7-1.7,1.7-1.7s1.7,0.7,1.7,1.7
			S18,55.6,17.1,55.6z"/>
		<path class="st0" d="M59.4,49.1V44c-1.2,0.9-2.8,1.7-4.7,2.4C56.4,47,58,47.9,59.4,49.1z"/>
		<path class="st0" d="M35.3,30.3c8,0,23-1.9,24-7v-9.9c0-4.6-10.8-8.3-24-8.3s-24,3.7-24,8.3v9.9C12.4,28.4,27.3,30.3,35.3,30.3z
			 M35.3,8.7c8,0,14.5,1.7,14.5,3.7s-6.5,3.7-14.5,3.7s-14.5-1.7-14.5-3.7S27.3,8.7,35.3,8.7z M17.1,19.1c0.9,0,1.7,0.7,1.7,1.7
			s-0.7,1.7-1.7,1.7s-1.7-0.7-1.7-1.7S16.2,19.1,17.1,19.1z"/>
		<path class="st0" d="M35.3,46.9c8,0,23-1.9,24-7V27.5c-4.3,3.3-13.4,5.3-24,5.3c-10.6,0-19.7-2-24-5.3v12.4
			C12.4,44.9,27.3,46.9,35.3,46.9z M17.1,35.7c0.9,0,1.7,0.7,1.7,1.7S18,39,17.1,39s-1.7-0.7-1.7-1.7S16.2,35.7,17.1,35.7z"/>
	</g>
	<g>
		<path class="st0" d="M51.5,49.8c4.3,0,7.9,3.5,7.9,7.9s-3.5,7.9-7.9,7.9s-7.9-3.5-7.9-7.9S47.1,49.8,51.5,49.8 M51.5,47.3
			c-5.7,0-10.4,4.6-10.4,10.4S45.8,68,51.5,68s10.4-4.6,10.4-10.4S57.2,47.3,51.5,47.3L51.5,47.3z"/>
	</g>
	<g>
		<path class="st0" d="M50.9,61.5c0.4-0.1,0.7-0.2,1.1-0.3c1.5-0.4,2.6-1.6,2.7-3.2c0.1-1.3-0.3-2.4-1.2-3.3
			c-0.4,0.2-0.7,0.4-1.1,0.5c0.2,0.2,0.4,0.4,0.6,0.6c0,0,0,0,0,0.1c-0.1,0-0.1,0-0.2,0c-0.7,0-1.4,0-2.1,0c-0.1,0-0.2,0.1-0.3,0.1
			c-0.2,0.2-0.4,0.5-0.5,0.8c0,0.1,0,0.1-0.1,0.2c0.6,0,1.3,0,1.9,0c0.6,0,1.2,0,1.9,0c0.1,0.9,0,1.6-0.6,2.3
			c-0.4,0.5-1,0.7-1.6,0.9c-0.6,0.1-1.1,0.3-1.6,0.6c-1,0.6-1.5,1.5-1.7,2.7c0,0.2,0,0.3,0,0.5c0.4,0.2,0.8,0.4,1.2,0.5
			c0,0,0-0.1-0.1-0.1C49.1,63.1,49.8,61.9,50.9,61.5z"/>
		<path class="st0" d="M49.3,50.8c-0.4,0.1-0.8,0.3-1.2,0.5c0,1.1,0.4,2,1.2,2.8c0.4-0.2,0.7-0.4,1.1-0.5c-0.2-0.2-0.4-0.4-0.6-0.6
			c0,0,0,0,0-0.1c0.8,0,1.5,0,2.3,0c0.1,0,0.2,0,0.3-0.1c0.3-0.3,0.5-0.6,0.6-1c-1.3,0-2.5,0-3.7,0C49.2,51.5,49.3,51.2,49.3,50.8
			C49.3,50.8,49.3,50.8,49.3,50.8z"/>
		<path class="st0" d="M53.6,64.5c0.4-0.1,0.8-0.3,1.2-0.5c0-1.1-0.4-2-1.2-2.8c-0.4,0.2-0.7,0.4-1.1,0.5c0.2,0.2,0.4,0.4,0.6,0.6
			c0,0,0,0,0,0.1c-0.1,0-0.1,0-0.2,0c-0.7,0-1.4,0-2.1,0c-0.1,0-0.3,0-0.4,0.1c-0.3,0.3-0.5,0.6-0.5,1c1.3,0,2.5,0,3.7,0
			C53.7,63.8,53.7,64.1,53.6,64.5C53.7,64.4,53.6,64.4,53.6,64.5z"/>
		<path class="st0" d="M53.6,50.8c0,0,0,0.1,0,0.1c0.1,1.1-0.3,2-1.2,2.6c-0.4,0.3-0.8,0.3-1.3,0.4c-0.8,0.2-1.5,0.5-2,1.1
			c-0.8,0.9-1.1,1.9-1,3c0.1,0.9,0.5,1.6,1.1,2.3c0,0,0.1,0.1,0.1,0.1c0.4-0.2,0.7-0.4,1.1-0.5c-0.2-0.2-0.4-0.4-0.6-0.6
			c0,0,0,0,0-0.1c0.1,0,0.1,0,0.2,0c0.7,0,1.4,0,2.1,0c0.1,0,0.2,0,0.3-0.1c0.3-0.2,0.4-0.5,0.5-0.8c0-0.1,0-0.1,0-0.2
			c-1.3,0-2.5,0-3.7,0c-0.1-0.6-0.1-1.1,0.2-1.6c0.3-0.8,0.9-1.3,1.7-1.5c0.5-0.1,1.1-0.3,1.6-0.5c1.2-0.6,1.8-1.6,2-2.8
			c0-0.1,0-0.3,0-0.4C54.4,51.1,54.1,50.9,53.6,50.8z"/>
	</g>
</g>
</svg>
