<?xml version="1.0" encoding="utf-8"?>
<!-- Generator: Adobe Illustrator 23.0.1, SVG Export Plug-In . SVG Version: 6.00 Build 0)  -->
<svg version="1.1" id="Layer_1" xmlns="http://www.w3.org/2000/svg" xmlns:xlink="http://www.w3.org/1999/xlink" x="0px" y="0px"
	 viewBox="0 0 72 72" style="enable-background:new 0 0 72 72;" xml:space="preserve">
<style type="text/css">
	.st0{fill:#2F2F31;}
</style>
<g>
	<path class="st0" d="M57,47.8l9.6,9.6c1.4,1.3,2.2,3.2,1.9,5.2c-0.1,2.5-1.7,4.6-4.1,5.4c-2.2,1-4.8,0.5-6.5-1.2
		c-2.6-2.5-5.1-5.1-7.7-7.6c-0.8-0.8-1.5-1.6-2.3-2.4c-6.8,4.4-15.2,5.6-23,3.4c-6.4-1.7-12-5.5-15.9-10.9
		c-8.2-11.4-7.1-27,2.7-37.1C23,0.7,41.4,0.6,52.9,11.8c2.3,2.3,4.2,4.9,5.6,7.8c2.2,4.4,3.2,9.4,2.9,14.3
		C61.1,38.9,59.6,43.6,57,47.8z M37.7,13.4c0,0.2-0.1,0.4-0.2,0.6c-0.3,1-0.9,2-1.7,2.7c-0.2,0.3-0.6,0.4-1,0.4h-7.5
		c0,0.1-0.1,0.1-0.1,0.2c0.7,0.6,1.5,1.2,2,1.8c-1.1,0.6-2.3,1.1-3.6,1.8c-2.6-2.4-4-5.7-4-9.2C13.4,15.9,8.5,24.7,9.2,34
		c0.7,9.8,7.2,16.6,12.6,19v-0.9c0-0.3,0.1-0.6,0.1-0.9c0.5-3.9,2.8-7.3,6.3-9.1c1.7-0.7,3.4-1.3,5.2-1.6c3.1-0.7,5.5-3.2,6.2-6.3
		c0.3-1.2,0.3-2.6,0-3.8H27.5c0.3-1.3,0.9-2.4,1.9-3.2c0.3-0.2,0.6-0.3,0.9-0.3h7.5c0-0.1,0.1-0.1,0.1-0.2c-0.7-0.6-1.5-1.2-2.1-1.8
		c1.1-0.6,2.3-1.1,3.6-1.7l0.5,0.5c2.7,2.7,3.9,6.5,3.4,10.2c-0.3,4.3-3.1,8-7.1,9.6c-1.5,0.5-3.1,1-4.6,1.4c-4.1,1.1-6.7,5.2-6,9.4
		c0,0.3,0.2,0.5,0.5,0.6c1,0.2,1.9,0.5,2.8,0.6c3.5,0.6,7.1,0.3,10.5-0.6c0.2-0.1,0.4-0.2,0.4-0.3c0.2-1,0.1-2.1-0.1-3.2H27.4
		c0.3-1.3,1-2.4,1.9-3.2c0.2-0.2,0.6-0.3,0.9-0.3h7.5c0-0.1,0-0.1,0.1-0.2c-0.7-0.6-1.5-1.3-2.1-1.9c1.1-0.6,2.3-1.1,3.6-1.7
		c0.9,0.8,1.7,1.7,2.3,2.7c1.2,1.9,1.8,4.1,1.8,6.4c7.7-4,12.6-12,12.6-20.7s-4.9-16.7-12.6-20.7v0.6c-0.5,5.1-2.9,8.7-7.7,10.7
		c-1.3,0.4-2.6,0.8-3.9,1.1c-3.1,0.7-5.5,3.1-6.2,6.2c-0.3,1.3-0.3,2.7,0,4h12.1c-0.3,1.2-1,2.3-1.9,3.2c-0.3,0.3-0.7,0.4-1.1,0.4
		h-7.5c0,0.1-0.1,0.1-0.1,0.2c0.7,0.6,1.4,1.2,2.1,1.8c-1.1,0.6-2.3,1.1-3.6,1.7c0,0-0.1-0.1-0.2-0.1c-2.3-2-3.7-4.9-3.8-7.9
		c-0.4-4.2,1.4-8.3,4.7-10.9c1.6-1.2,3.5-2,5.5-2.3c1.3-0.2,2.6-0.7,3.7-1.3c3.2-1.9,4.3-4.9,4-8.4c0-0.3-0.2-0.6-0.6-0.6
		c-2.2-0.6-4.4-0.9-6.6-0.9s-4.4,0.3-6.6,1c-0.2,0.1-0.5,0.2-0.5,0.4c-0.2,1-0.1,2.1,0.1,3.2C29.6,13.4,33.6,13.4,37.7,13.4z
		 M51.1,54.9l7.6,7.6c0.6,0.6,1.1,1.2,1.8,1.7c0.9,0.8,2.2,0.9,3.2,0.2c1.3-0.8,1.8-2.5,1-3.8c-0.1-0.2-0.3-0.5-0.5-0.7l-9-9
		c-0.1-0.1-0.2-0.2-0.3-0.2c0.1,0.1,0.1,0.2,0.2,0.2C53.7,52.2,52.4,53.5,51.1,54.9z"/>
</g>
</svg>
