<?xml version="1.0" encoding="utf-8"?>
<!-- Generator: Adobe Illustrator 24.2.1, SVG Export Plug-In . SVG Version: 6.00 Build 0)  -->
<svg version="1.1" id="Layer_1" xmlns="http://www.w3.org/2000/svg" xmlns:xlink="http://www.w3.org/1999/xlink" x="0px" y="0px"
	 viewBox="0 0 72 72" style="enable-background:new 0 0 72 72;" xml:space="preserve">
<style type="text/css">
	.st0{fill:#2F2F31;}
</style>
<g>
	<path class="st0" d="M36,0.7C16.6,0.7,0.7,16.6,0.7,36S16.6,71.3,36,71.3S71.3,55.4,71.3,36S55.4,0.7,36,0.7z M36,67.8
		C18.4,67.8,4.2,53.6,4.2,36S18.4,4.2,36,4.2S67.8,18.4,67.8,36S53.6,67.8,36,67.8z"/>
	<path class="st0" d="M36,7.3C20.2,7.3,7.3,20.2,7.3,36S20.2,64.7,36,64.7S64.7,51.8,64.7,36S51.8,7.3,36,7.3z M36,63.3
		C20.9,63.3,8.7,51.1,8.7,36S20.9,8.7,36,8.7S63.3,20.9,63.3,36S51.1,63.3,36,63.3z"/>
	<g>
		<g>
			<path class="st0" d="M20.9,36.9l-3.3-3.3c-0.3-0.3-0.7-0.5-1.2-0.5c-0.4,0-0.8,0.1-1.2,0.5c-0.6,0.6-0.6,1.7,0,2.3l3.3,3.3
				c0.3,0.3,0.7,0.5,1.2,0.5c0.4,0,0.8-0.1,1.2-0.5C21.5,38.7,21.5,37.6,20.9,36.9z M20.6,38.9c-0.2,0.2-0.5,0.3-0.8,0.3
				s-0.6-0.1-0.8-0.3l-3.3-3.3c-0.4-0.4-0.4-1.2,0-1.6c0.2-0.2,0.5-0.3,0.8-0.3c0.3,0,0.6,0.1,0.8,0.3l3.3,3.3
				c0.2,0.2,0.3,0.5,0.3,0.8C20.9,38.4,20.8,38.7,20.6,38.9z"/>
			<path class="st0" d="M36,45.7c0.4,0,0.8-0.1,1.2-0.5c0.6-0.6,0.6-1.7,0-2.3l-3.3-3.3c-0.3-0.3-0.7-0.5-1.2-0.5
				c-0.4,0-0.8,0.1-1.2,0.5c-0.6,0.6-0.6,1.7,0,2.3l3.3,3.3C35.1,45.5,35.6,45.7,36,45.7z M31.5,40.7c0-0.3,0.1-0.6,0.3-0.8
				c0.2-0.2,0.5-0.3,0.8-0.3s0.6,0.1,0.8,0.3l3.3,3.3c0.4,0.4,0.4,1.2,0,1.6c-0.2,0.2-0.5,0.3-0.8,0.3s-0.6-0.1-0.8-0.3l-3.3-3.3
				C31.7,41.3,31.5,41,31.5,40.7z"/>
			<path class="st0" d="M58.4,32.9l-3.3-3.3c-0.6-0.6-1.7-0.6-2.3,0c-0.6,0.6-0.6,1.7,0,2.3l3.3,3.3c0.6,0.6,1.7,0.6,2.3,0
				C59,34.6,59,33.5,58.4,32.9z"/>
			<path class="st0" d="M22.4,43c-0.9,0-1.6,0.7-1.6,1.6v4.7c0,0.9,0.7,1.6,1.6,1.6c0.9,0,1.6-0.7,1.6-1.6v-4.7
				C24,43.7,23.3,43,22.4,43z"/>
			<path class="st0" d="M29.3,19v4.7c0,0.9,0.7,1.6,1.6,1.6c0.9,0,1.6-0.7,1.6-1.6V19c0-0.9-0.7-1.6-1.6-1.6
				C30.1,17.4,29.3,18.1,29.3,19z"/>
			<path class="st0" d="M32.2,32.1c0-0.9-0.7-1.6-1.6-1.6h-4.7c-0.9,0-1.6,0.7-1.6,1.6s0.7,1.6,1.6,1.6h4.7
				C31.4,33.8,32.2,33,32.2,32.1z"/>
			<path class="st0" d="M30.8,16.9h4.7c0.9,0,1.6-0.7,1.6-1.6c0-0.9-0.7-1.6-1.6-1.6h-4.7c-0.9,0-1.6,0.7-1.6,1.6
				C29.1,16.2,29.8,16.9,30.8,16.9z M29.9,14.5c0.2-0.2,0.5-0.3,0.8-0.3h4.7c0.3,0,0.6,0.1,0.8,0.3c0.2,0.2,0.3,0.5,0.3,0.8
				c0,0.6-0.5,1.1-1.1,1.1h-4.7c-0.3,0-0.6-0.1-0.8-0.3c-0.2-0.2-0.3-0.5-0.3-0.8C29.6,15,29.7,14.7,29.9,14.5z"/>
			<path class="st0" d="M53.4,41.1h-4.7c-0.9,0-1.6,0.7-1.6,1.6c0,0.9,0.7,1.6,1.6,1.6h4.7c0.9,0,1.6-0.7,1.6-1.6
				C55,41.8,54.3,41.1,53.4,41.1z M53.4,43.8h-4.7c-0.6,0-1.1-0.5-1.1-1.1c0-0.3,0.1-0.6,0.3-0.8c0.2-0.2,0.5-0.3,0.8-0.3h4.7
				c0.6,0,1.1,0.5,1.1,1.1C54.5,43.4,54,43.8,53.4,43.8z"/>
			<path class="st0" d="M48.9,32.4l3.3-3.3c0.6-0.6,0.6-1.7,0-2.3c-0.6-0.6-1.7-0.6-2.3,0l-3.3,3.3c-0.6,0.6-0.6,1.7,0,2.3
				C47.3,33,48.3,33,48.9,32.4z"/>
			<path class="st0" d="M37.9,51.6l-3.3,3.3c-0.6,0.6-0.6,1.7,0,2.3s1.7,0.6,2.3,0l3.3-3.3c0.6-0.6,0.6-1.7,0-2.3
				C39.6,51,38.5,51,37.9,51.6z"/>
			<path class="st0" d="M39.2,27.1c-0.4,0-0.8,0.1-1.2,0.5l-3.3,3.3c-0.6,0.6-0.6,1.7,0,2.3c0.3,0.3,0.7,0.5,1.2,0.5
				s0.8-0.1,1.2-0.5l3.3-3.3c0.6-0.6,0.6-1.7,0-2.3C40,27.3,39.6,27.1,39.2,27.1z M40,29.5l-3.4,3.4c-0.2,0.2-0.5,0.3-0.8,0.3
				s-0.6-0.1-0.8-0.3c-0.4-0.4-0.4-1.2,0-1.6l3.3-3.3c0.2-0.2,0.5-0.3,0.8-0.3s0.6,0.1,0.8,0.3c0.2,0.2,0.3,0.5,0.3,0.8
				C40.3,29,40.2,29.3,40,29.5z"/>
		</g>
	</g>
</g>
</svg>
