<?xml version="1.0" encoding="utf-8"?>
<!-- Generator: Adobe Illustrator 23.0.1, SVG Export Plug-In . SVG Version: 6.00 Build 0)  -->
<svg version="1.1" id="Layer_1" xmlns="http://www.w3.org/2000/svg" xmlns:xlink="http://www.w3.org/1999/xlink" x="0px" y="0px"
	 viewBox="0 0 235.74 34.8" style="enable-background:new 0 0 235.74 34.8;" xml:space="preserve">
<style type="text/css">
	.st0{fill:#FFFFFF;}
</style>
<g transform="translate(0 0.004)">
	<g transform="translate(43.948 5.18)">
		<path class="st0" d="M132.74,12.52v8.95c0.01,0.42-0.15,0.82-0.44,1.12c-0.3,0.31-0.71,0.48-1.14,0.46
			c-0.42,0.01-0.82-0.16-1.1-0.46c-0.29-0.3-0.45-0.7-0.44-1.12v-8.92c0.06-1.1-0.25-2.19-0.89-3.09c-0.73-0.83-1.8-1.26-2.9-1.15
			c-0.84,0.02-1.66,0.24-2.39,0.66c-0.69,0.39-1.27,0.95-1.68,1.63c-0.4,0.66-0.61,1.42-0.61,2.2v8.67
			c0.01,0.42-0.15,0.82-0.44,1.12c-0.3,0.31-0.71,0.48-1.14,0.46c-0.42,0.02-0.83-0.14-1.12-0.44c-0.29-0.31-0.44-0.71-0.43-1.13
			V7.14c-0.01-0.42,0.15-0.82,0.44-1.12c0.28-0.3,0.68-0.47,1.1-0.46c0.43-0.01,0.84,0.15,1.14,0.46c0.3,0.39,0.45,0.87,0.44,1.37
			V7.8c1.22-1.57,3.11-2.46,5.09-2.41C129.67,5.38,132.74,7.78,132.74,12.52z"/>
		<path class="st0" d="M17.77,0.44c0.31,0.3,0.48,0.71,0.46,1.14v19.84c-0.01,0.43-0.19,0.85-0.49,1.15
			c-0.31,0.31-0.74,0.48-1.18,0.46c-0.43,0.01-0.83-0.16-1.14-0.46c-0.31-0.3-0.49-0.72-0.48-1.15V12.9H3.26v8.52
			c0.01,0.44-0.17,0.86-0.49,1.15c-0.31,0.3-0.72,0.47-1.15,0.46c-0.44,0.02-0.86-0.15-1.17-0.46c-0.3-0.31-0.46-0.72-0.44-1.15
			V1.58c-0.01-0.42,0.16-0.83,0.46-1.12C0.78,0.15,1.21-0.02,1.65,0c0.43-0.01,0.83,0.16,1.14,0.46c0.31,0.29,0.48,0.7,0.48,1.12
			v8.29h11.68V1.58c-0.01-0.43,0.18-0.84,0.49-1.12C16.09-0.15,17.11-0.15,17.77,0.44L17.77,0.44z"/>
		<path class="st0" d="M37.91,14.76c-0.3,0.27-0.68,0.42-1.09,0.41H25.24c0.09,1.47,0.74,2.85,1.83,3.85
			c1.07,0.97,2.46,1.48,3.9,1.45c0.88,0.03,1.75-0.12,2.57-0.46c0.64-0.3,1.23-0.7,1.74-1.19c0.28-0.19,0.61-0.29,0.95-0.3
			c0.35-0.01,0.7,0.14,0.94,0.4c0.24,0.24,0.38,0.58,0.38,0.92c-0.02,0.5-0.26,0.96-0.66,1.25c-0.73,0.7-1.59,1.24-2.53,1.61
			c-1.02,0.43-2.12,0.66-3.23,0.66c-1.63,0.04-3.25-0.35-4.69-1.12c-1.32-0.72-2.41-1.8-3.13-3.13c-0.75-1.39-1.13-2.96-1.1-4.54
			c-0.04-1.69,0.35-3.36,1.13-4.85c0.69-1.32,1.72-2.43,2.99-3.21c2.44-1.48,5.5-1.49,7.95-0.03c1.23,0.73,2.25,1.76,2.96,2.99
			c0.75,1.3,1.15,2.78,1.15,4.28C38.38,14.14,38.2,14.5,37.91,14.76z M27.15,9.33c-0.97,0.81-1.6,1.96-1.78,3.21h9.71v-0.26
			c-0.09-1.13-0.66-2.17-1.56-2.86c-0.9-0.73-2.02-1.13-3.18-1.12C29.19,8.27,28.06,8.63,27.15,9.33L27.15,9.33z"/>
		<path class="st0" d="M54.82,21.52c0,0.43-0.18,0.84-0.49,1.13c-0.28,0.3-0.67,0.47-1.09,0.48c-0.52,0-1-0.26-1.28-0.69l-4.41-5.56
			l-4.34,5.56c-0.14,0.21-0.33,0.38-0.56,0.49c-0.21,0.11-0.45,0.17-0.69,0.17c-0.38,0-0.75-0.15-1.04-0.41
			c-0.3-0.23-0.47-0.59-0.48-0.97c-0.01-0.36,0.12-0.72,0.36-0.99l4.94-6.15l-5.07-6.38c-0.49-0.61-0.43-1.5,0.15-2.04
			c0.61-0.61,1.6-0.61,2.21,0c0.06,0.06,0.12,0.13,0.17,0.2l4.51,5.69l4.24-5.66c0.27-0.43,0.74-0.69,1.25-0.69
			c0.39-0.01,0.77,0.14,1.05,0.41c0.27,0.25,0.43,0.6,0.43,0.97c0.02,0.37-0.11,0.74-0.36,1.02l-4.87,6.16l5,6.35
			C54.69,20.85,54.82,21.18,54.82,21.52z"/>
		<path class="st0" d="M73.03,6.01c0.3,0.31,0.47,0.74,0.45,1.17v14.28c0.01,0.42-0.15,0.82-0.44,1.12
			c-0.3,0.31-0.71,0.48-1.14,0.46c-0.42,0.02-0.83-0.14-1.12-0.44c-0.29-0.31-0.44-0.71-0.43-1.13V20.6
			c-0.63,0.82-1.42,1.48-2.34,1.96c-0.98,0.54-2.08,0.81-3.19,0.81c-1.44,0.02-2.85-0.38-4.06-1.15c-1.23-0.78-2.22-1.9-2.86-3.21
			c-1.38-2.93-1.38-6.32,0-9.25c0.64-1.31,1.62-2.42,2.85-3.21c1.19-0.76,2.57-1.16,3.98-1.15c1.12-0.01,2.23,0.24,3.24,0.72
			c0.93,0.43,1.74,1.06,2.39,1.84V7.18c-0.01-0.43,0.14-0.84,0.43-1.16c0.29-0.31,0.7-0.48,1.12-0.46
			C72.32,5.55,72.73,5.71,73.03,6.01z M67.93,19.68c0.81-0.54,1.46-1.29,1.88-2.17c0.9-1.98,0.9-4.24,0-6.22
			c-0.42-0.88-1.07-1.64-1.88-2.19c-0.81-0.54-1.77-0.82-2.75-0.81c-0.97-0.02-1.93,0.26-2.75,0.79c-0.81,0.54-1.46,1.29-1.88,2.17
			c-0.9,1.99-0.9,4.27,0,6.25c0.41,0.88,1.06,1.63,1.88,2.17C64.11,20.73,66.25,20.73,67.93,19.68L67.93,19.68z"/>
		<path class="st0" d="M93.66,6.01c0.3,0.31,0.46,0.73,0.44,1.17v14.48c0.06,1.56-0.34,3.11-1.14,4.46
			c-0.73,1.18-1.81,2.1-3.08,2.65c-1.38,0.59-2.87,0.88-4.38,0.86c-1.04-0.03-2.07-0.18-3.08-0.46c-0.81-0.14-1.58-0.47-2.25-0.95
			c-0.68-0.35-1.02-0.79-1.02-1.32c0.01-0.18,0.06-0.36,0.13-0.53c0.18-0.51,0.68-0.84,1.22-0.82c0.32,0.01,0.63,0.08,0.92,0.2
			c1.3,0.57,2.69,0.92,4.11,1.02c1.46,0.1,2.89-0.35,4.03-1.27c0.95-0.89,1.47-2.16,1.4-3.47v-1.78c-0.55,0.94-1.35,1.7-2.32,2.2
			c-1.05,0.6-2.23,0.92-3.44,0.92c-1.46,0.01-2.9-0.38-4.15-1.15c-1.26-0.78-2.28-1.89-2.95-3.21c-1.43-2.92-1.43-6.33,0-9.25
			c0.66-1.32,1.68-2.43,2.93-3.21c1.23-0.77,2.65-1.17,4.1-1.15c2.27,0.01,4.41,1.05,5.82,2.83V7.18c-0.01-0.43,0.14-0.84,0.43-1.15
			c0.29-0.31,0.7-0.48,1.12-0.46C92.95,5.55,93.36,5.71,93.66,6.01z M88.44,19.69c0.84-0.53,1.52-1.28,1.96-2.17
			c0.48-0.98,0.72-2.05,0.71-3.14c0.02-1.08-0.22-2.16-0.71-3.13c-0.44-0.89-1.12-1.64-1.96-2.17c-0.86-0.53-1.85-0.81-2.86-0.79
			c-1-0.01-1.98,0.26-2.83,0.79c-0.84,0.53-1.52,1.29-1.96,2.19c-0.94,1.97-0.94,4.25,0,6.22c0.44,0.9,1.12,1.65,1.96,2.19
			c0.85,0.53,1.83,0.8,2.83,0.79C86.59,20.48,87.58,20.22,88.44,19.69z"/>
		<path class="st0" d="M113.25,19.02c-0.74,1.33-1.82,2.43-3.14,3.19c-2.73,1.54-6.06,1.54-8.79,0c-1.32-0.76-2.4-1.86-3.14-3.19
			c-0.78-1.41-1.18-3-1.15-4.61c-0.02-1.62,0.38-3.22,1.15-4.64c0.73-1.34,1.82-2.46,3.14-3.23c2.73-1.54,6.06-1.54,8.79,0
			c1.32,0.77,2.41,1.88,3.14,3.23c0.78,1.42,1.18,3.02,1.15,4.64C114.43,16.02,114.04,17.61,113.25,19.02z M110.54,11.24
			c-0.46-0.89-1.15-1.65-2.01-2.17c-1.73-1.03-3.89-1.03-5.63,0c-0.86,0.53-1.55,1.28-2.01,2.17c-0.5,0.98-0.76,2.07-0.74,3.17
			c-0.02,1.09,0.24,2.16,0.74,3.13c0.46,0.89,1.16,1.63,2.01,2.15c1.73,1.03,3.89,1.03,5.63,0c0.85-0.52,1.55-1.27,2.01-2.15
			c0.5-0.96,0.76-2.04,0.74-3.13C111.3,13.31,111.05,12.22,110.54,11.24z"/>
		<path class="st0" d="M118.47,6.25"/>
		<path class="st0" d="M163.09,12.52c0.82,1.07,1.23,2.39,1.17,3.74c0,2.43-0.71,4.17-2.12,5.21c-1.51,1.07-3.33,1.62-5.18,1.56
			h-8.46c-0.87,0-1.58-0.7-1.58-1.57c0,0,0-0.01,0-0.01V1.58c0-0.87,0.7-1.58,1.57-1.58c0,0,0.01,0,0.01,0h8.46
			c1.65-0.12,3.29,0.41,4.56,1.48c1.1,1.14,1.67,2.7,1.56,4.28c0.02,0.99-0.24,1.97-0.76,2.81c-0.53,0.84-1.29,1.5-2.2,1.89
			C161.28,10.85,162.31,11.57,163.09,12.52z M158.84,3.9c-0.65-0.57-1.49-0.86-2.35-0.81h-6.21v6.42h6.29
			c0.83,0.01,1.63-0.31,2.24-0.87c0.62-0.63,0.94-1.5,0.89-2.39C159.74,5.38,159.44,4.53,158.84,3.9z M159.81,19.07
			c0.77-0.73,1.16-1.76,1.09-2.81c0-2.43-1.38-3.65-4.15-3.65h-6.48V20h6.65C157.97,20.06,159,19.72,159.81,19.07L159.81,19.07z"/>
		<path class="st0" d="M168.02,3.11c-0.3-0.29-0.45-0.69-0.41-1.1V1.48c-0.04-0.42,0.12-0.84,0.44-1.12
			c0.41-0.25,0.89-0.36,1.37-0.33c0.47-0.04,0.94,0.08,1.33,0.35c0.3,0.29,0.45,0.69,0.41,1.1v0.53c0.04,0.42-0.12,0.84-0.43,1.12
			c-0.4,0.25-0.88,0.37-1.35,0.33C168.91,3.5,168.43,3.38,168.02,3.11z M170.52,22.57c-0.3,0.31-0.71,0.48-1.14,0.46
			c-0.42,0.01-0.82-0.16-1.1-0.46c-0.29-0.3-0.45-0.7-0.44-1.12V7.21c-0.01-0.42,0.15-0.82,0.44-1.12c0.28-0.3,0.68-0.47,1.1-0.46
			c0.43-0.01,0.84,0.15,1.14,0.46c0.29,0.3,0.45,0.7,0.44,1.12v14.25C170.98,21.87,170.82,22.27,170.52,22.57L170.52,22.57z"/>
		<path class="st0" d="M190.65,19.02c-0.74,1.33-1.82,2.43-3.14,3.19c-2.73,1.54-6.06,1.54-8.79,0c-1.32-0.76-2.4-1.86-3.14-3.19
			c-0.78-1.41-1.18-3-1.15-4.61c-0.02-1.62,0.37-3.22,1.15-4.64c0.73-1.34,1.82-2.46,3.14-3.23c2.73-1.54,6.06-1.54,8.79,0
			c1.32,0.77,2.41,1.88,3.14,3.23c0.78,1.42,1.18,3.02,1.15,4.64C191.82,16.02,191.43,17.61,190.65,19.02z M187.93,11.24
			c-0.46-0.89-1.15-1.65-2.01-2.17c-1.73-1.03-3.89-1.03-5.63,0c-0.86,0.53-1.55,1.28-2.01,2.17c-0.5,0.98-0.76,2.07-0.74,3.17
			c-0.02,1.09,0.24,2.16,0.74,3.13c0.46,0.89,1.16,1.63,2.01,2.15c1.73,1.03,3.89,1.03,5.63,0c0.85-0.52,1.55-1.27,2.01-2.15
			c0.5-0.96,0.76-2.04,0.74-3.13C188.69,13.31,188.43,12.22,187.93,11.24z"/>
	</g>
	<path class="st0" d="M28.31,7.28l-11.98-6.9c-0.89-0.51-1.99-0.51-2.88,0l-12,6.93C0.57,7.83,0.02,8.77,0.02,9.8L0,23.62
		c0,1.03,0.55,1.99,1.44,2.5l11.98,6.89c0.44,0.25,0.93,0.38,1.44,0.38c0.51,0,1-0.13,1.44-0.39l11.99-6.93
		c0.89-0.51,1.44-1.46,1.44-2.49l0.02-13.82C29.75,8.74,29.2,7.79,28.31,7.28z M25.85,23.03l-11,6.35L3.88,23.06l0.02-12.67l11-6.35
		l10.98,6.32L25.85,23.03z"/>
</g>
</svg>
